<svg xmlns="http://www.w3.org/2000/svg" width="20" height="20" viewBox="0 0 20 20">
  <g id="fb" transform="translate(-471 -542)">
    <path id="Path_70" data-name="Path 70" d="M-483.66-847a5.346,5.346,0,0,1-5.34-5.34v-9.321a5.345,5.345,0,0,1,5.34-5.34h9.32A5.346,5.346,0,0,1-469-861.66v9.321A5.347,5.347,0,0,1-474.34-847Zm-5.049-5.34a5.049,5.049,0,0,0,5.049,5.048h9.32a5.049,5.049,0,0,0,5.049-5.048v0a5.049,5.049,0,0,1-5.049,5.048h-9.32A5.049,5.049,0,0,1-488.709-852.339Zm13.2,4.271v-6.213h2.33a.388.388,0,0,0,.388-.388v0a.388.388,0,0,1-.388.388h-2.33Zm-3.106,0v0Zm3.4-.291h.874a3.985,3.985,0,0,0,3.981-3.98v-9.321a3.986,3.986,0,0,0-3.981-3.981h-9.32a3.986,3.986,0,0,0-3.981,3.981v9.321a3.985,3.985,0,0,0,3.981,3.98h3.98v-5.631h-1.651a.68.68,0,0,1-.679-.68v-3.107a.68.68,0,0,1,.679-.679h1.651v-2.427a3.013,3.013,0,0,1,3.01-3.01h3.5a.681.681,0,0,1,.68.68v3.107a.68.68,0,0,1-.68.679h-1.942a.1.1,0,0,0-.1.1v.875h2.039a.68.68,0,0,1,.68.679v3.107a.681.681,0,0,1-.68.68h-2.039Zm-5.437-6.99H-479a.681.681,0,0,1,.68.68v6.31h1.748v-6.31a.681.681,0,0,1,.68-.68h2.039V-857.1h-2.039a.681.681,0,0,1-.68-.68v-1.554a1.458,1.458,0,0,1,1.457-1.456h1.262v-1.748h-2.815a1.652,1.652,0,0,0-1.651,1.651v3.106a.681.681,0,0,1-.68.68h-1.651Zm-7.281-6.31v0a4.272,4.272,0,0,1,4.272-4.272h9.32a4.272,4.272,0,0,1,4.272,4.272,4.272,4.272,0,0,0-4.272-4.272h-9.32A4.272,4.272,0,0,0-487.932-861.66Zm6.213,6.99a.388.388,0,0,0,.388.388h0A.388.388,0,0,1-481.718-854.67Zm.777-.389v-2.33H-479a.389.389,0,0,0,.389-.389v-3.106a1.941,1.941,0,0,1,1.942-1.942h0a1.941,1.941,0,0,0-1.942,1.942v3.106a.389.389,0,0,1-.389.389h-1.942Zm4.66-2.718a.389.389,0,0,0,.389.389h0A.389.389,0,0,1-476.282-857.777Zm.777-1.554v0a.388.388,0,0,1,.389-.388h1.942a.388.388,0,0,0,.388-.388v0a.388.388,0,0,1-.388.388h-1.942A.388.388,0,0,0-475.505-859.331Z" transform="translate(960 1409)" fill="#69140e"/>
    <g id="Rectangle_15" data-name="Rectangle 15" transform="translate(471 542)" fill="#69140e" stroke="#707070" stroke-width="1" opacity="0">
      <rect width="20" height="20" stroke="none"/>
      <rect x="0.5" y="0.5" width="19" height="19" fill="none"/>
    </g>
  </g>
</svg>
