<svg xmlns="http://www.w3.org/2000/svg" width="20" height="20" viewBox="0 0 20 20">
  <g id="ig" transform="translate(-476 -542)">
    <g id="Rectangle_17" data-name="Rectangle 17" transform="translate(476 542)" fill="#69140e" stroke="#707070" stroke-width="1" opacity="0">
      <rect width="20" height="20" stroke="none"/>
      <rect x="0.5" y="0.5" width="19" height="19" fill="none"/>
    </g>
    <path id="Path_72" data-name="Path 72" d="M-478.661-941a5.346,5.346,0,0,1-5.34-5.34v-9.321a5.346,5.346,0,0,1,5.34-5.34h9.321a5.346,5.346,0,0,1,5.34,5.34v9.321a5.345,5.345,0,0,1-5.34,5.34Zm-5.048-5.34a5.048,5.048,0,0,0,5.048,5.049h9.321a5.049,5.049,0,0,0,5.049-5.049v0a5.049,5.049,0,0,1-5.049,5.049h-9.321A5.048,5.048,0,0,1-483.708-946.34Zm1.068-9.321v9.321a3.985,3.985,0,0,0,3.98,3.981h9.321a3.986,3.986,0,0,0,3.981-3.981v-9.321a3.985,3.985,0,0,0-3.981-3.98h-9.321A3.984,3.984,0,0,0-482.641-955.661Zm-.292,0v0a4.271,4.271,0,0,1,4.272-4.271h9.321a4.271,4.271,0,0,1,4.272,4.271,4.271,4.271,0,0,0-4.272-4.271h-9.321A4.271,4.271,0,0,0-482.932-955.661Zm4.109,4.661A4.829,4.829,0,0,1-474-955.823,4.829,4.829,0,0,1-469.177-951,4.835,4.835,0,0,1-474-946.177,4.829,4.829,0,0,1-478.823-951Zm.291,0A4.532,4.532,0,0,0-474-946.468,4.535,4.535,0,0,0-469.468-951,4.535,4.535,0,0,1-474-946.468,4.532,4.532,0,0,1-478.532-951Zm2.082-2.446a3.443,3.443,0,0,0-1.014,2.451A3.468,3.468,0,0,0-474-947.532a3.441,3.441,0,0,0,2.451-1.017A3.44,3.44,0,0,0-470.536-951a3.473,3.473,0,0,0-3.3-3.46H-474A3.44,3.44,0,0,0-476.45-953.445Zm-1.057,3.8,0-.011Zm-.01-.026a3.739,3.739,0,0,1-.23-1.066A3.735,3.735,0,0,0-477.516-949.675Zm-.233-1.108v0Zm0-.019c0-.064,0-.128,0-.192Q-477.755-950.9-477.75-950.8Zm3.751-3.949a3.756,3.756,0,0,0-3.755,3.757A3.756,3.756,0,0,1-474-954.752v0A3.758,3.758,0,0,1-470.245-951,3.758,3.758,0,0,0-474-954.755Zm3.2-1.88a1.653,1.653,0,0,1,1.651-1.651,1.653,1.653,0,0,1,1.651,1.651,1.652,1.652,0,0,1-1.651,1.651A1.653,1.653,0,0,1-470.8-956.631Zm.292,0a1.359,1.359,0,0,0,1.359,1.36,1.36,1.36,0,0,0,1.36-1.36,1.36,1.36,0,0,1-1.36,1.36,1.359,1.359,0,0,1-1.359-1.36Zm1.068,0a.292.292,0,0,0,.291.292.292.292,0,0,0,.292-.292.292.292,0,0,0-.292-.291A.291.291,0,0,0-469.437-956.631Zm.874,0a.582.582,0,0,0-.583-.582.582.582,0,0,0-.582.582.582.582,0,0,1,.582-.582A.582.582,0,0,1-468.563-956.631Z" transform="translate(960 1503)" fill="#69140e"/>
  </g>
</svg>
