<svg xmlns="http://www.w3.org/2000/svg" width="20.5" height="20" viewBox="0 0 20.5 20">
  <g id="mail" transform="translate(-471.75 -537)">
    <path id="Path_64" data-name="Path 64" d="M21.25,6.692V16.923a2.192,2.192,0,0,1-2.192,2.192H4.442A2.192,2.192,0,0,1,2.25,16.923V6.692m19,0A2.192,2.192,0,0,0,19.058,4.5H4.442A2.192,2.192,0,0,0,2.25,6.692m19,0v.237A2.192,2.192,0,0,1,20.207,8.8l-7.307,4.5a2.192,2.192,0,0,1-2.3,0L3.293,8.8A2.192,2.192,0,0,1,2.25,6.93V6.692" transform="translate(470.25 535)" fill="none" stroke="#69140e" stroke-linecap="round" stroke-linejoin="round" stroke-width="1.5"/>
    <g id="Rectangle_13" data-name="Rectangle 13" transform="translate(472 537)" fill="#69140e" stroke="#707070" stroke-width="1" opacity="0">
      <rect width="20" height="20" stroke="none"/>
      <rect x="0.5" y="0.5" width="19" height="19" fill="none"/>
    </g>
  </g>
</svg>
