<svg xmlns="http://www.w3.org/2000/svg" width="20" height="24" viewBox="0 0 20 24">
  <g id="map" transform="translate(-3.5 -0.875)">
    <path id="Path_73" data-name="Path 73" d="M-386.61-1477.467a20.921,20.921,0,0,1-4.426-3.473,17.1,17.1,0,0,1-3.055-4.189,12.632,12.632,0,0,1-1.409-5.746,9.26,9.26,0,0,1,9.249-9.25,9.26,9.26,0,0,1,9.25,9.25,12.644,12.644,0,0,1-1.408,5.746,17.105,17.105,0,0,1-3.055,4.189,20.922,20.922,0,0,1-4.426,3.473.755.755,0,0,1-.361.092A.751.751,0,0,1-386.61-1477.467Zm-7.39-13.408a12.624,12.624,0,0,0,4.036,8.887A20.374,20.374,0,0,0-386.25-1479a20.481,20.481,0,0,0,3.743-3.022,12.609,12.609,0,0,0,4.007-8.856,7.758,7.758,0,0,0-7.75-7.75A7.759,7.759,0,0,0-394-1490.875Zm4-.117a3.754,3.754,0,0,1,3.749-3.75,3.754,3.754,0,0,1,3.75,3.75,3.754,3.754,0,0,1-3.75,3.749A3.754,3.754,0,0,1-390-1490.992Zm1.5,0a2.253,2.253,0,0,0,2.25,2.25,2.253,2.253,0,0,0,2.25-2.25,2.252,2.252,0,0,0-2.25-2.25A2.253,2.253,0,0,0-388.5-1490.992Z" transform="translate(400 1502)" fill="#3c1518"/>
    <g id="Rectangle_14" data-name="Rectangle 14" transform="translate(3.5 0.875)" fill="#fff" stroke="#707070" stroke-width="1" opacity="0">
      <rect width="20" height="24" stroke="none"/>
      <rect x="0.5" y="0.5" width="19" height="23" fill="none"/>
    </g>
  </g>
</svg>
