<svg xmlns="http://www.w3.org/2000/svg" width="20" height="20" viewBox="0 0 20 20">
  <g id="phone" transform="translate(-470 -541)">
    <g id="Rectangle_12" data-name="Rectangle 12" transform="translate(470 541)" fill="#69140e" stroke="#707070" stroke-width="1" opacity="0">
      <rect width="20" height="20" stroke="none"/>
      <rect x="0.5" y="0.5" width="19" height="19" fill="none"/>
    </g>
    <path id="Path_63" data-name="Path 63" d="M4.344,1.5H5.653A1.769,1.769,0,0,1,7.371,2.841l1.055,4.22a1.765,1.765,0,0,1-.657,1.847l-1.232.924a.316.316,0,0,0-.126.356,10.768,10.768,0,0,0,6.4,6.4.319.319,0,0,0,.356-.126l.926-1.234a1.77,1.77,0,0,1,1.846-.656l4.22,1.055A1.768,1.768,0,0,1,21.5,17.347v1.309A2.848,2.848,0,0,1,18.656,21.5H16.509A15.009,15.009,0,0,1,1.5,6.491V4.344A2.848,2.848,0,0,1,4.344,1.5ZM12.9,18a1.654,1.654,0,0,1-.572-.1A12.161,12.161,0,0,1,5.1,10.67a1.7,1.7,0,0,1,.6-1.953l1.234-.925a.373.373,0,0,0,.14-.391L6.017,3.18A.375.375,0,0,0,5.653,2.9H4.344A1.451,1.451,0,0,0,2.9,4.344V6.491A13.629,13.629,0,0,0,16.509,20.1h2.147A1.451,1.451,0,0,0,20.1,18.656V17.347a.374.374,0,0,0-.284-.364L15.6,15.927a.38.38,0,0,0-.391.139L14.283,17.3A1.74,1.74,0,0,1,12.9,18Z" transform="translate(468.5 539.5)" fill="#69140e"/>
  </g>
</svg>
