<svg xmlns="http://www.w3.org/2000/svg" width="20" height="20" viewBox="0 0 20 20">
  <g id="yt" transform="translate(-2.698 -11.029)">
    <path id="Path_71" data-name="Path 71" d="M-947.531-1435.318a49.294,49.294,0,0,1-5.239-.28,4.659,4.659,0,0,1-2.782-1.35,4.662,4.662,0,0,1-1.317-2.8,28.17,28.17,0,0,1,.04-5.846,4.691,4.691,0,0,1,1.374-2.781,4.683,4.683,0,0,1,2.811-1.3,54.248,54.248,0,0,1,5.652-.3,54.364,54.364,0,0,1,5.655.3,4.676,4.676,0,0,1,4.2,4.188,28.046,28.046,0,0,1-.024,5.731,4.6,4.6,0,0,1-4.121,4.162c-2.223.185-4.224.275-6.122.275Zm.128-.291c1.878,0,3.89-.09,6.093-.274a4.3,4.3,0,0,0,3.86-3.9,27.731,27.731,0,0,0,.158-2.925,27.731,27.731,0,0,1-.158,2.925,4.3,4.3,0,0,1-3.86,3.9c-2.2.184-4.215.274-6.093.274Zm-1.431-.017-.088,0Zm-7.745-4.147a4.351,4.351,0,0,0,3.839,3.887q1.867.2,3.745.256-1.877-.056-3.745-.256a4.351,4.351,0,0,1-3.839-3.887q-.132-1.353-.132-2.712Q-956.712-1441.128-956.58-1439.773Zm4.076-8.653a3.431,3.431,0,0,0-3.081,2.978,26.864,26.864,0,0,0-.039,5.584,3.411,3.411,0,0,0,2.984,3.026c1.862.18,3.755.271,5.626.271s3.765-.091,5.628-.271a3.346,3.346,0,0,0,2.975-3.039v-.007a26.87,26.87,0,0,0,.023-5.477,3.43,3.43,0,0,0-3.085-3.057h-.005a51.226,51.226,0,0,0-5.2-.308v.018h-.292A54.781,54.781,0,0,0-952.5-1448.426Zm5.531-.573a54.9,54.9,0,0,0-5.561.283,3.7,3.7,0,0,0-3.341,3.232,27.151,27.151,0,0,0-.168,3,27.151,27.151,0,0,1,.168-3,3.7,3.7,0,0,1,3.341-3.232,54.9,54.9,0,0,1,5.561-.283v-.02a51.493,51.493,0,0,1,5.528.311,3.713,3.713,0,0,1,3.347,3.318q.132,1.338.131,2.683,0-1.343-.131-2.683a3.713,3.713,0,0,0-3.347-3.318,51.493,51.493,0,0,0-5.528-.311Zm-2.045,9.812a.626.626,0,0,1-.62-.626v-5.691a.624.624,0,0,1,.326-.549.618.618,0,0,1,.3-.077.627.627,0,0,1,.338.1l4.684,3.012a.63.63,0,0,1,.3.533.628.628,0,0,1-.3.535l-.006,0-4.687,2.678a.635.635,0,0,1-.31.082Zm-.329-.626a.334.334,0,0,0,.335.335H-949a.333.333,0,0,0,.149-.035.338.338,0,0,1-.163.034A.334.334,0,0,1-949.345-1439.813Zm5.2-2.387-4.687,2.678,4.687-2.678a.334.334,0,0,0,.161-.286A.334.334,0,0,1-944.143-1442.2Zm-4.533,1.811v-4.5l3.706,2.384-3.706-2.384Zm.291-.5,2.854-1.632-2.854-1.835Zm-.767-4.917a.333.333,0,0,1,.079-.025A.332.332,0,0,0-949.152-1445.807Zm.152-.031h0Z" transform="translate(959.7 1464)" fill="#69140e"/>
    <g id="Rectangle_16" data-name="Rectangle 16" transform="translate(2.698 11.029)" fill="#69140e" stroke="#707070" stroke-width="1" opacity="0">
      <rect width="20" height="20" stroke="none"/>
      <rect x="0.5" y="0.5" width="19" height="19" fill="none"/>
    </g>
  </g>
</svg>
